Coordinates
version=1
nRows=26
nColumns=22
inDegrees=yes

Units are S.I. units (second, meters, Newtons, ...)
If the header above contains a line with 'inDegrees', this indicates whether rotational values are in degrees (yes) or radians (no).

endheader
time	pelvis_tilt	pelvis_list	pelvis_rotation	pelvis_tx	pelvis_ty	pelvis_tz	hip_flexion_r	hip_adduction_r	hip_rotation_r	knee_angle_r	ankle_angle_r	subtalar_angle_r	hip_flexion_l	hip_adduction_l	hip_rotation_l	knee_angle_l	ankle_angle_l	subtalar_angle_l	lumbar_extension	lumbar_bending	lumbar_rotation
      5.41000000	      3.92146828	     -1.31235867	    294.88659553	     -0.50509640	      1.07186761	      0.61816185	     20.64544391	     -8.60051916	      3.50814751	    -48.90379096	      7.59389278	      0.03854028	     -2.06217151	     13.87646982	      8.26976997	    -11.45461786	      9.09440308	    -16.80098927	     -6.09217781	     -7.25688036	     -6.59778966
      5.42000000	      3.81852270	     -1.32174668	    296.03325845	     -0.50053953	      1.07180155	      0.62482136	     20.99006256	     -8.54388760	      3.06535197	    -47.16649119	      7.98037548	     -0.18373749	     -2.66213554	     13.72425811	      9.50325102	    -11.49081819	      9.30576744	    -16.80351344	     -6.02830192	     -7.04811821	     -6.81570254
      5.43000000	      3.70191170	     -1.33191911	    297.13226341	     -0.49608615	      1.07167969	      0.63149094	     21.30460310	     -8.42071130	      2.67964256	    -45.36889231	      8.28675633	     -0.24052929	     -3.23470754	     13.53895449	     10.68770383	    -11.54304373	      9.51131453	    -16.80392311	     -5.94328183	     -6.84108599	     -6.98504601
      5.44000000	      3.54428161	     -1.29631434	    298.18951919	     -0.49171115	      1.07141347	      0.63815514	     21.65318895	     -8.23558489	      2.34473713	    -43.52539818	      8.49620180	     -0.14585554	     -3.70976952	     13.32071983	     11.79871263	    -11.63066519	      9.73995966	    -16.79846000	     -5.77407751	     -6.62913175	     -7.11705059
      5.45000000	      3.45091407	     -1.36515752	    299.20328074	     -0.48737822	      1.07129707	      0.64492408	     21.81526660	     -8.01916215	      2.04233553	    -41.60597795	      8.68714419	      0.06855843	     -4.34132097	     13.08457203	     12.87225077	    -11.65150570	      9.94730900	    -16.75498477	     -5.72775775	     -6.44184746	     -7.20466844
      5.46000000	      3.32256767	     -1.38066169	    300.17954100	     -0.48310039	      1.07102540	      0.65168296	     22.01533801	     -7.75904562	      1.78154399	    -39.64439268	      8.78826771	      0.38963709	     -4.86883158	     12.82691085	     13.85647934	    -11.70868792	     10.19933308	    -16.69437824	     -5.59752823	     -6.25827036	     -7.26684767
      5.47000000	      3.19598826	     -1.39170632	    301.11537756	     -0.47886469	      1.07069420	      0.65846205	     22.18064157	     -7.47028096	      1.55641028	    -37.63190121	      8.82061514	      0.80093196	     -5.37814642	     12.55722554	     14.76310011	    -11.76551927	     10.47185529	    -16.61004728	     -5.45551007	     -6.09103468	     -7.29364962
      5.48000000	      3.07606961	     -1.39524521	    302.01942155	     -0.47467445	      1.07029731	      0.66523827	     22.31001787	     -7.16511330	      1.36333308	    -35.57011003	      8.80178974	      1.28659565	     -5.86719420	     12.28363869	     15.60516299	    -11.82706951	     10.76454031	    -16.50736770	     -5.30868772	     -5.94541463	     -7.31163122
      5.49000000	      2.96092824	     -1.38883116	    302.89314273	     -0.47052568	      1.06982603	      0.67200546	     22.40807900	     -6.85093217	      1.18830131	    -33.46470015	      8.74278335	      1.82608947	     -6.33333911	     12.00934758	     16.38824868	    -11.89454159	     11.07243952	    -16.39430549	     -5.15710379	     -5.82139897	     -7.31720743
      5.50000000	      2.85023808	     -1.38350566	    303.73644075	     -0.46641178	      1.06929408	      0.67876889	     22.46451702	     -6.52510822	      1.03089194	    -31.31895902	      8.64734235	      2.42814964	     -6.78821902	     11.73019179	     17.11418249	    -11.96733757	     11.38509498	    -16.26904619	     -5.01282206	     -5.70939808	     -7.30679537
      5.51000000	      2.73911546	     -1.38035643	    304.55526218	     -0.46232051	      1.06869709	      0.68553895	     22.48248945	     -6.18955468	      0.87532762	    -29.14181717	      8.53700701	      3.07611532	     -7.22925402	     11.44325046	     17.78857899	    -12.05097579	     11.70348279	    -16.14314272	     -4.87524331	     -5.60411335	     -7.28757534
      5.52000000	      2.62795046	     -1.38353193	    305.35697544	     -0.45822321	      1.06803581	      0.69232245	     22.45917281	     -5.84933226	      0.70837827	    -26.94464065	      8.45379710	      3.76287851	     -7.66494166	     11.14770367	     18.42597799	    -12.14282762	     12.03217549	    -16.02487482	     -4.74743420	     -5.50070583	     -7.26008855
      5.53000000	      2.51132923	     -1.39959193	    306.13774217	     -0.45411132	      1.06732282	      0.69913209	     22.39210003	     -5.49539995	      0.53815291	    -24.72994063	      8.38987882	      4.50204962	     -8.09684125	     10.83572888	     19.01465272	    -12.24362918	     12.36197892	    -15.91084825	     -4.63008326	     -5.38695708	     -7.22136254
      5.54000000	      2.38768256	     -1.42858780	    306.90374830	     -0.44996284	      1.06655938	      0.70597221	     22.28062758	     -5.12983059	      0.36315060	    -22.50415495	      8.37396991	      5.29038965	     -8.52581395	     10.50602649	     19.56608232	    -12.35302008	     12.69634637	    -15.80359210	     -4.52043744	     -5.25932130	     -7.17696392
      5.55000000	      2.25503865	     -1.47053224	    307.65379508	     -0.44577011	      1.06574926	      0.71284975	     22.12373733	     -4.75056957	      0.19896186	    -20.26977144	      8.41182190	      6.13155526	     -8.95017985	     10.15690529	     20.08212661	    -12.47205673	     13.03332972	    -15.70062186	     -4.41468727	     -5.11468909	     -7.12791221
      5.56000000	      2.11409975	     -1.52431595	    308.39202201	     -0.44151997	      1.06489571	      0.71976616	     21.91848229	     -4.35924603	      0.07115923	    -18.03262675	      8.50241870	      7.03181258	     -9.36961511	      9.78920368	     20.56908626	    -12.60093567	     13.37184231	    -15.59822567	     -4.31104036	     -4.95238371	     -7.07990796
      5.57000000	      1.96738850	     -1.58327931	    309.11796619	     -0.43720819	      1.06399201	      0.72672294	     21.66914796	     -3.96267421	      0.01675511	    -15.80668381	      8.63385493	      7.97601591	     -9.78028941	      9.40941856	     21.03254696	    -12.73989889	     13.70986381	    -15.49534085	     -4.20476387	     -4.77879910	     -7.03417414
      5.58000000	      1.82040081	     -1.63900232	    309.83068874	     -0.43282880	      1.06303246	      0.73371459	     21.38279654	     -3.57352999	      0.08198687	    -13.61689873	      8.77933256	      8.94391890	    -10.17820976	      9.02859430	     21.47231406	    -12.88957914	     14.03624976	    -15.38912144	     -4.09339609	     -4.60375389	     -6.98827818
      5.59000000	      1.66561586	     -1.68512996	    310.54386179	     -0.42834962	      1.06199866	      0.74072928	     21.07548300	     -3.20189270	      0.27629846	    -11.50436378	      8.92340005	      9.84910426	    -10.54850204	      8.64461840	     21.87913051	    -13.06044046	     14.35636632	    -15.28911370	     -3.96579318	     -4.42067881	     -6.96799042
      5.60000000	      1.53343203	     -1.71416751	    311.24255721	     -0.42378884	      1.06090855	      0.74776109	     20.75406323	     -2.87758249	      0.66501192	     -9.53350191	      9.03877244	     10.68965359	    -10.91612517	      8.29097660	     22.29700781	    -13.23583195	     14.64310497	    -15.18503708	     -3.84135183	     -4.26663979	     -6.92777756
      5.61000000	      1.45604945	     -1.71207387	    311.92792287	     -0.41913006	      1.05977231	      0.75479343	     20.43489675	     -2.64300401	      1.24768078	     -7.79134483	      9.14475505	     11.43993087	    -11.29952007	      8.00258180	     22.72626930	    -13.40328533	     14.91145952	    -15.07571786	     -3.73610996	     -4.17578732	     -6.88018637
      5.62000000	      1.36486503	     -1.68123548	    312.61365783	     -0.41434251	      1.05855394	      0.76184602	     20.17569143	     -2.44917114	      1.95877533	     -6.34217655	      9.19483810	     11.95602942	    -11.63377081	      7.72410304	     23.11210385	    -13.59969531	     15.12503975	    -14.97974516	     -3.59395296	     -4.08600469	     -6.85257794
      5.63000000	      1.33076707	     -1.63713618	    313.29003771	     -0.40944216	      1.05732797	      0.76887062	     19.96072181	     -2.33480910	      2.81576997	     -5.29932072	      9.25662033	     12.34975516	    -11.99008611	      7.50751520	     23.52536106	    -13.81752232	     15.32630785	    -14.86912952	     -3.49387719	     -4.04331159	     -6.81112454
      5.64000000	      1.28353564	     -1.52997169	    313.96497829	     -0.40444651	      1.05599783	      0.77588864	     19.89796077	     -2.27160196	      3.74216968	     -4.71414728	      9.28440857	     12.47369492	    -12.26897522	      7.33209527	     23.93787361	    -14.07374867	     15.52591896	    -14.82679913	     -3.33543161	     -4.03470264	     -6.78076447
      5.65000000	      1.28690202	     -1.50227518	    314.61490428	     -0.39931552	      1.05484698	      0.78303418	     19.79085363	     -2.18871468	      4.74354928	     -4.52997996	      9.28101333	     12.57938817	    -12.65686925	      7.13159662	     24.29419156	    -14.31383509	     15.64006918	    -14.63079464	     -3.27660168	     -3.99956786	     -6.72712089
      5.66000000	      1.26705126	     -1.44596806	    315.26783501	     -0.39411236	      1.05368163	      0.79018523	     19.81345689	     -2.10222772	      5.78156502	     -4.78876662	      9.18115613	     12.46301636	    -12.98314482	      6.93832125	     24.66854799	    -14.59979736	     15.74182409	    -14.46909603	     -3.18098951	     -3.96462042	     -6.69244654
